<svg width="200" height="144" viewBox="0 0 200 144" fill="none" xmlns="http://www.w3.org/2000/svg">
<g clip-path="url(#clip0_5715_2137)">
<path d="M196 0H4C1.79086 0 0 1.79086 0 4V140C0 142.209 1.79086 144 4 144H196C198.209 144 200 142.209 200 140V4C200 1.79086 198.209 0 196 0Z" fill="#F3F4F6"/>
<g filter="url(#filter0_d_5715_2137)">
<path d="M121.448 39.2788H78.5525C75.8524 39.2788 73.6636 41.4676 73.6636 44.1677V99.8322C73.6636 102.532 75.8524 104.721 78.5525 104.721H121.448C124.148 104.721 126.337 102.532 126.337 99.8322V44.1677C126.337 41.4676 124.148 39.2788 121.448 39.2788Z" fill="white"/>
<path d="M121.448 39.8901H78.5524C76.1899 39.8901 74.2747 41.8054 74.2747 44.1679V99.8325C74.2747 102.195 76.1899 104.11 78.5524 104.11H121.448C123.81 104.11 125.726 102.195 125.726 99.8325V44.1679C125.726 41.8054 123.81 39.8901 121.448 39.8901Z" stroke="#E7EAF3" stroke-width="1.22222"/>
</g>
<path d="M78.5524 39.8901H121.448C123.81 39.8901 125.725 41.8053 125.725 44.1678V58.6198H74.2747V44.1678C74.2747 41.8053 76.1899 39.8901 78.5524 39.8901Z" fill="#F8FAFD" stroke="#E7EAF3" stroke-width="1.22222"/>
<path d="M100 69.7681H84.3932C83.8544 69.7681 83.4177 70.2048 83.4177 70.7435C83.4177 71.2822 83.8544 71.7189 84.3932 71.7189H100C100.539 71.7189 100.975 71.2822 100.975 70.7435C100.975 70.2048 100.539 69.7681 100 69.7681Z" fill="#D80951"/>
<path d="M100 76.5962H84.3932C83.8544 76.5962 83.4177 77.0329 83.4177 77.5716C83.4177 78.1103 83.8544 78.547 84.3932 78.547H100C100.539 78.547 100.975 78.1103 100.975 77.5716C100.975 77.0329 100.539 76.5962 100 76.5962Z" fill="#202233"/>
<path d="M115.607 76.5962H105.852C105.314 76.5962 104.877 77.0329 104.877 77.5716C104.877 78.1103 105.314 78.547 105.852 78.547H115.607C116.145 78.547 116.582 78.1103 116.582 77.5716C116.582 77.0329 116.145 76.5962 115.607 76.5962Z" fill="#202233"/>
<path d="M100 84.3994H84.3932C83.8544 84.3994 83.4177 84.8361 83.4177 85.3748C83.4177 85.9136 83.8544 86.3503 84.3932 86.3503H100C100.539 86.3503 100.975 85.9136 100.975 85.3748C100.975 84.8361 100.539 84.3994 100 84.3994Z" fill="#D9DDEA"/>
<path d="M111.705 84.3994H105.852C105.314 84.3994 104.877 84.8361 104.877 85.3748C104.877 85.9136 105.314 86.3503 105.852 86.3503H111.705C112.244 86.3503 112.68 85.9136 112.68 85.3748C112.68 84.8361 112.244 84.3994 111.705 84.3994Z" fill="#D9DDEA"/>
<path d="M89.2703 90.252H84.3932C83.8544 90.252 83.4177 90.6887 83.4177 91.2274C83.4177 91.7661 83.8544 92.2028 84.3932 92.2028H89.2703C89.809 92.2028 90.2457 91.7661 90.2457 91.2274C90.2457 90.6887 89.809 90.252 89.2703 90.252Z" fill="#D9DDEA"/>
<path d="M111.705 90.252H95.1226C94.5839 90.252 94.1472 90.6887 94.1472 91.2274C94.1472 91.7661 94.5839 92.2028 95.1226 92.2028H111.705C112.244 92.2028 112.68 91.7661 112.68 91.2274C112.68 90.6887 112.244 90.252 111.705 90.252Z" fill="#D9DDEA"/>
<g filter="url(#filter1_d_5715_2137)">
<path d="M62.7842 39.2788H19.8889C17.1888 39.2788 15 41.4676 15 44.1677V99.8322C15 102.532 17.1888 104.721 19.8889 104.721H62.7842C65.4843 104.721 67.6731 102.532 67.6731 99.8322V44.1677C67.6731 41.4676 65.4843 39.2788 62.7842 39.2788Z" fill="white"/>
<path d="M62.7842 39.8901H19.8889C17.5263 39.8901 15.6111 41.8054 15.6111 44.1679V99.8325C15.6111 102.195 17.5263 104.11 19.8889 104.11H62.7842C65.1468 104.11 67.062 102.195 67.062 99.8325V44.1679C67.062 41.8054 65.1468 39.8901 62.7842 39.8901Z" stroke="#E7EAF3" stroke-width="1.22222"/>
</g>
<path d="M19.8889 39.8901H62.7842C65.1467 39.8901 67.062 41.8053 67.062 44.1678V58.6198H15.6111V44.1678C15.6111 41.8053 17.5263 39.8901 19.8889 39.8901Z" fill="#F8FAFD" stroke="#E7EAF3" stroke-width="1.22222"/>
<path d="M41.3367 69.7681H25.7298C25.1911 69.7681 24.7544 70.2048 24.7544 70.7435C24.7544 71.2822 25.1911 71.7189 25.7298 71.7189H41.3367C41.8754 71.7189 42.3121 71.2822 42.3121 70.7435C42.3121 70.2048 41.8754 69.7681 41.3367 69.7681Z" fill="#D80951"/>
<path d="M41.3367 76.5962H25.7298C25.1911 76.5962 24.7544 77.0329 24.7544 77.5716C24.7544 78.1103 25.1911 78.547 25.7298 78.547H41.3367C41.8754 78.547 42.3121 78.1103 42.3121 77.5716C42.3121 77.0329 41.8754 76.5962 41.3367 76.5962Z" fill="#202233"/>
<path d="M56.9433 76.5962H47.189C46.6503 76.5962 46.2136 77.0329 46.2136 77.5716C46.2136 78.1103 46.6503 78.547 47.189 78.547H56.9433C57.482 78.547 57.9187 78.1103 57.9187 77.5716C57.9187 77.0329 57.482 76.5962 56.9433 76.5962Z" fill="#202233"/>
<path d="M41.3367 84.3994H25.7298C25.1911 84.3994 24.7544 84.8361 24.7544 85.3748C24.7544 85.9136 25.1911 86.3503 25.7298 86.3503H41.3367C41.8754 86.3503 42.3121 85.9136 42.3121 85.3748C42.3121 84.8361 41.8754 84.3994 41.3367 84.3994Z" fill="#D9DDEA"/>
<path d="M53.0416 84.3994H47.189C46.6503 84.3994 46.2136 84.8361 46.2136 85.3748C46.2136 85.9136 46.6503 86.3503 47.189 86.3503H53.0416C53.5803 86.3503 54.017 85.9136 54.017 85.3748C54.017 84.8361 53.5803 84.3994 53.0416 84.3994Z" fill="#D9DDEA"/>
<path d="M30.607 90.252H25.7298C25.1911 90.252 24.7544 90.6887 24.7544 91.2274C24.7544 91.7661 25.1911 92.2028 25.7298 92.2028H30.607C31.1457 92.2028 31.5824 91.7661 31.5824 91.2274C31.5824 90.6887 31.1457 90.252 30.607 90.252Z" fill="#D9DDEA"/>
<path d="M53.0416 90.252H36.4593C35.9206 90.252 35.4839 90.6887 35.4839 91.2274C35.4839 91.7661 35.9206 92.2028 36.4593 92.2028H53.0416C53.5803 92.2028 54.017 91.7661 54.017 91.2274C54.017 90.6887 53.5803 90.252 53.0416 90.252Z" fill="#D9DDEA"/>
<g filter="url(#filter2_d_5715_2137)">
<path d="M180.111 39.2788H137.216C134.516 39.2788 132.327 41.4676 132.327 44.1677V99.8322C132.327 102.532 134.516 104.721 137.216 104.721H180.111C182.811 104.721 185 102.532 185 99.8322V44.1677C185 41.4676 182.811 39.2788 180.111 39.2788Z" fill="white"/>
<path d="M180.111 39.8901H137.216C134.853 39.8901 132.938 41.8054 132.938 44.1679V99.8325C132.938 102.195 134.853 104.11 137.216 104.11H180.111C182.474 104.11 184.389 102.195 184.389 99.8325V44.1679C184.389 41.8054 182.474 39.8901 180.111 39.8901Z" stroke="#E7EAF3" stroke-width="1.22222"/>
</g>
<path d="M137.216 39.8901H180.111C182.474 39.8901 184.389 41.8053 184.389 44.1678V58.6198H132.938V44.1678C132.938 41.8053 134.853 39.8901 137.216 39.8901Z" fill="#F8FAFD" stroke="#E7EAF3" stroke-width="1.22222"/>
<path d="M158.663 69.7681H143.056C142.518 69.7681 142.081 70.2048 142.081 70.7435C142.081 71.2822 142.518 71.7189 143.056 71.7189H158.663C159.202 71.7189 159.639 71.2822 159.639 70.7435C159.639 70.2048 159.202 69.7681 158.663 69.7681Z" fill="#D80951"/>
<path d="M158.663 76.5962H143.056C142.518 76.5962 142.081 77.0329 142.081 77.5716C142.081 78.1103 142.518 78.547 143.056 78.547H158.663C159.202 78.547 159.639 78.1103 159.639 77.5716C159.639 77.0329 159.202 76.5962 158.663 76.5962Z" fill="#202233"/>
<path d="M174.271 76.5962H164.516C163.978 76.5962 163.541 77.0329 163.541 77.5716C163.541 78.1103 163.978 78.547 164.516 78.547H174.271C174.809 78.547 175.246 78.1103 175.246 77.5716C175.246 77.0329 174.809 76.5962 174.271 76.5962Z" fill="#202233"/>
<path d="M158.663 84.3994H143.056C142.518 84.3994 142.081 84.8361 142.081 85.3748C142.081 85.9136 142.518 86.3503 143.056 86.3503H158.663C159.202 86.3503 159.639 85.9136 159.639 85.3748C159.639 84.8361 159.202 84.3994 158.663 84.3994Z" fill="#D9DDEA"/>
<path d="M170.369 84.3994H164.516C163.978 84.3994 163.541 84.8361 163.541 85.3748C163.541 85.9136 163.978 86.3503 164.516 86.3503H170.369C170.908 86.3503 171.344 85.9136 171.344 85.3748C171.344 84.8361 170.908 84.3994 170.369 84.3994Z" fill="#D9DDEA"/>
<path d="M147.934 90.252H143.056C142.518 90.252 142.081 90.6887 142.081 91.2274C142.081 91.7661 142.518 92.2028 143.056 92.2028H147.934C148.472 92.2028 148.909 91.7661 148.909 91.2274C148.909 90.6887 148.472 90.252 147.934 90.252Z" fill="#D9DDEA"/>
<path d="M170.369 90.252H153.786C153.248 90.252 152.811 90.6887 152.811 91.2274C152.811 91.7661 153.248 92.2028 153.786 92.2028H170.369C170.907 92.2028 171.344 91.7661 171.344 91.2274C171.344 90.6887 170.907 90.252 170.369 90.252Z" fill="#D9DDEA"/>
<path d="M0 104H200V140C200 142.209 198.209 144 196 144H4C1.79086 144 0 142.209 0 140V104Z" fill="url(#paint0_linear_5715_2137)"/>
</g>
<defs>
<filter id="filter0_d_5715_2137" x="67.5525" y="36.8344" width="64.8953" height="77.6646" filterUnits="userSpaceOnUse" color-interpolation-filters="sRGB">
<feFlood flood-opacity="0" result="BackgroundImageFix"/>
<feColorMatrix in="SourceAlpha" type="matrix" values="0 0 0 0 0 0 0 0 0 0 0 0 0 0 0 0 0 0 127 0" result="hardAlpha"/>
<feOffset dy="3.66667"/>
<feGaussianBlur stdDeviation="3.05556"/>
<feColorMatrix type="matrix" values="0 0 0 0 0.54902 0 0 0 0 0.596078 0 0 0 0 0.643137 0 0 0 0.125 0"/>
<feBlend mode="normal" in2="BackgroundImageFix" result="effect1_dropShadow_5715_2137"/>
<feBlend mode="normal" in="SourceGraphic" in2="effect1_dropShadow_5715_2137" result="shape"/>
</filter>
<filter id="filter1_d_5715_2137" x="8.88888" y="36.8344" width="64.8953" height="77.6646" filterUnits="userSpaceOnUse" color-interpolation-filters="sRGB">
<feFlood flood-opacity="0" result="BackgroundImageFix"/>
<feColorMatrix in="SourceAlpha" type="matrix" values="0 0 0 0 0 0 0 0 0 0 0 0 0 0 0 0 0 0 127 0" result="hardAlpha"/>
<feOffset dy="3.66667"/>
<feGaussianBlur stdDeviation="3.05556"/>
<feColorMatrix type="matrix" values="0 0 0 0 0.54902 0 0 0 0 0.596078 0 0 0 0 0.643137 0 0 0 0.125 0"/>
<feBlend mode="normal" in2="BackgroundImageFix" result="effect1_dropShadow_5715_2137"/>
<feBlend mode="normal" in="SourceGraphic" in2="effect1_dropShadow_5715_2137" result="shape"/>
</filter>
<filter id="filter2_d_5715_2137" x="126.216" y="36.8344" width="64.8953" height="77.6646" filterUnits="userSpaceOnUse" color-interpolation-filters="sRGB">
<feFlood flood-opacity="0" result="BackgroundImageFix"/>
<feColorMatrix in="SourceAlpha" type="matrix" values="0 0 0 0 0 0 0 0 0 0 0 0 0 0 0 0 0 0 127 0" result="hardAlpha"/>
<feOffset dy="3.66667"/>
<feGaussianBlur stdDeviation="3.05556"/>
<feColorMatrix type="matrix" values="0 0 0 0 0.54902 0 0 0 0 0.596078 0 0 0 0 0.643137 0 0 0 0.125 0"/>
<feBlend mode="normal" in2="BackgroundImageFix" result="effect1_dropShadow_5715_2137"/>
<feBlend mode="normal" in="SourceGraphic" in2="effect1_dropShadow_5715_2137" result="shape"/>
</filter>
<linearGradient id="paint0_linear_5715_2137" x1="100" y1="154" x2="100" y2="92.5" gradientUnits="userSpaceOnUse">
<stop offset="0.256387" stop-color="#F3F4F6"/>
<stop offset="0.749415" stop-color="#F3F4F6" stop-opacity="0"/>
</linearGradient>
<clipPath id="clip0_5715_2137">
<rect width="200" height="144" fill="white"/>
</clipPath>
</defs>
</svg>
